<svg xmlns="http://www.w3.org/2000/svg" viewBox="0 0 512 512" role="img" aria-label="Fan waypoint">
  <defs>
    <radialGradient id="fanCore" cx="38%" cy="28%" r="72%">
      <stop offset="0" stop-color="#f7ffff"/>
      <stop offset="0.28" stop-color="#7de7ef"/>
      <stop offset="0.58" stop-color="#315f92"/>
      <stop offset="1" stop-color="#121a38"/>
    </radialGradient>
    <linearGradient id="fanSignal" x1="0" x2="1" y1="0" y2="1">
      <stop offset="0" stop-color="#8ffff6"/>
      <stop offset="1" stop-color="#efc66f"/>
    </linearGradient>
    <filter id="fanGlow" x="-50%" y="-50%" width="200%" height="200%">
      <feGaussianBlur stdDeviation="18" result="blur"/>
      <feColorMatrix in="blur" type="matrix" values="0 0 0 0 0.38 0 0 0 0 0.9 0 0 0 0 0.94 0 0 0 0.78 0"/>
      <feBlend in="SourceGraphic" mode="screen"/>
    </filter>
    <clipPath id="fanClip"><circle cx="256" cy="256" r="158"/></clipPath>
  </defs>
  <circle cx="256" cy="256" r="206" fill="#75e9ef" opacity="0.12" filter="url(#fanGlow)"/>
  <circle cx="256" cy="256" r="158" fill="url(#fanCore)" filter="url(#fanGlow)"/>
  <g clip-path="url(#fanClip)">
    <path d="M87 260c76-50 113 23 178-5 54-23 83-67 160-25" fill="none" stroke="#d7ffff" stroke-width="10" stroke-linecap="round" opacity="0.34"/>
    <path d="M109 330c53-30 102-18 147 9 60 36 95 21 151-20" fill="none" stroke="#f1c77d" stroke-width="9" stroke-linecap="round" opacity="0.32"/>
    <circle cx="176" cy="160" r="29" fill="#ffffff" opacity="0.18"/>
  </g>
  <path d="M256 58v64M256 390v64M58 256h64M390 256h64" stroke="url(#fanSignal)" stroke-width="7" stroke-linecap="round" opacity="0.46"/>
  <circle cx="256" cy="256" r="204" fill="none" stroke="url(#fanSignal)" stroke-width="3" stroke-dasharray="18 18" opacity="0.5"/>
  <circle cx="256" cy="256" r="158" fill="none" stroke="#bbfbff" stroke-width="3" opacity="0.42"/>
</svg>
